<svg width="64" height="64" viewBox="0 0 64 64" fill="none" xmlns="http://www.w3.org/2000/svg">
  <defs>
    <filter id="emerald_glow" x="-20%" y="-20%" width="140%" height="140%">
      <feGaussianBlur stdDeviation="3" result="blur"/>
    </filter>
    <linearGradient id="gold_border" x1="0" y1="0" x2="1" y2="1">
      <stop offset="0%" stop-color="#FEF9C3"/>
      <stop offset="50%" stop-color="#FACC15"/>
      <stop offset="100%" stop-color="#854D0E"/>
    </linearGradient>
  </defs>

  <!-- GOLDEN FRAME -->
  <path d="M32 2 L56 32 L32 62 L8 32 Z" fill="url(#gold_border)"/>

  <!-- THE EMERALD CUT DIAMOND (NESTED) -->
  <path d="M32 6 L52 32 L32 58 L12 32 Z" fill="#065F46" filter="url(#emerald_glow)"/>
  <path d="M32 8 L50 32 L32 56 L14 32 Z" fill="#10B981"/>
  
  <!-- Facets -->
  <path d="M32 8 L50 32 L32 32 Z" fill="#34D399" opacity="0.6"/>
  <path d="M32 8 L14 32 L32 32 Z" fill="#6EE7B7" opacity="0.4"/>
  <path d="M32 56 L50 32 L32 32 Z" fill="#064E3B" opacity="0.5"/>
  
  <!-- SHARP HIGHLIGHT (Top-Left Edge) -->
  <path d="M32 8 L14 32 L18 32 L32 14 Z" fill="white" opacity="0.8"/>
</svg>
