<svg width="40" height="40" viewBox="0 0 150 150" fill="white" xmlns="http://www.w3.org/2000/svg" class="opacity-90">
  <circle cx="65" cy="5" r="3.5" opacity="1"/>
  <circle cx="85" cy="5" r="3.5" opacity="1"/>
  <circle cx="35" cy="15" r="2" opacity="0.11"/>
  <circle cx="55" cy="15" r="3.5" opacity="1"/>
  <circle cx="75" cy="15" r="3.5" opacity="1"/>
  <circle cx="95" cy="15" r="3.5" opacity="1"/>
  <circle cx="115" cy="15" r="3.5" opacity="1"/>
  <circle cx="25" cy="25" r="3.5" opacity="1"/>
  <circle cx="45" cy="25" r="3.5" opacity="1"/>
  <circle cx="65" cy="25" r="2" opacity="0.20"/>
  <circle cx="85" cy="25" r="2" opacity="0.20"/>
  <circle cx="105" cy="25" r="3.5" opacity="1"/>
  <circle cx="125" cy="25" r="3.5" opacity="1"/>
  <circle cx="15" cy="35" r="3.5" opacity="1"/>
  <circle cx="35" cy="35" r="3.5" opacity="1"/>
  <circle cx="55" cy="35" r="2" opacity="0.22"/>
  <circle cx="75" cy="35" r="2" opacity="0.24"/>
  <circle cx="95" cy="35" r="2" opacity="0.22"/>
  <circle cx="115" cy="35" r="2" opacity="0.17"/>
  <circle cx="135" cy="35" r="2" opacity="0.11"/>
  <circle cx="25" cy="45" r="3.5" opacity="1"/>
  <circle cx="45" cy="45" r="2" opacity="0.23"/>
  <circle cx="65" cy="45" r="2" opacity="0.27"/>
  <circle cx="85" cy="45" r="2" opacity="0.27"/>
  <circle cx="105" cy="45" r="2" opacity="0.23"/>
  <circle cx="125" cy="45" r="2" opacity="0.17"/>
  <circle cx="15" cy="55" r="3.5" opacity="1"/>
  <circle cx="35" cy="55" r="3.5" opacity="1"/>
  <circle cx="55" cy="55" r="2" opacity="0.29"/>
  <circle cx="75" cy="55" r="2" opacity="0.32"/>
  <circle cx="95" cy="55" r="2" opacity="0.29"/>
  <circle cx="115" cy="55" r="2" opacity="0.22"/>
  <circle cx="135" cy="55" r="2" opacity="0.15"/>
  <circle cx="5" cy="65" r="2" opacity="0.12"/>
  <circle cx="25" cy="65" r="3.5" opacity="1"/>
  <circle cx="45" cy="65" r="3.5" opacity="1"/>
  <circle cx="65" cy="65" r="3.5" opacity="1"/>
  <circle cx="85" cy="65" r="3.5" opacity="1"/>
  <circle cx="105" cy="65" r="2" opacity="0.27"/>
  <circle cx="125" cy="65" r="2" opacity="0.20"/>
  <circle cx="145" cy="65" r="2" opacity="0.12"/>
  <circle cx="15" cy="75" r="2" opacity="0.16"/>
  <circle cx="35" cy="75" r="3.5" opacity="1"/>
  <circle cx="55" cy="75" r="3.5" opacity="1"/>
  <circle cx="75" cy="75" r="3.5" opacity="1"/>
  <circle cx="95" cy="75" r="3.5" opacity="1"/>
  <circle cx="115" cy="75" r="2" opacity="0.24"/>
  <circle cx="135" cy="75" r="2" opacity="0.16"/>
  <circle cx="5" cy="85" r="2" opacity="0.12"/>
  <circle cx="25" cy="85" r="2" opacity="0.20"/>
  <circle cx="45" cy="85" r="2" opacity="0.27"/>
  <circle cx="65" cy="85" r="3.5" opacity="1"/>
  <circle cx="85" cy="85" r="3.5" opacity="1"/>
  <circle cx="105" cy="85" r="3.5" opacity="1"/>
  <circle cx="125" cy="85" r="3.5" opacity="1"/>
  <circle cx="145" cy="85" r="2" opacity="0.12"/>
  <circle cx="15" cy="95" r="2" opacity="0.15"/>
  <circle cx="35" cy="95" r="2" opacity="0.22"/>
  <circle cx="55" cy="95" r="2" opacity="0.29"/>
  <circle cx="75" cy="95" r="2" opacity="0.32"/>
  <circle cx="95" cy="95" r="2" opacity="0.29"/>
  <circle cx="115" cy="95" r="2" opacity="0.22"/>
  <circle cx="135" cy="95" r="3.5" opacity="1"/>
  <circle cx="25" cy="105" r="2" opacity="0.17"/>
  <circle cx="45" cy="105" r="2" opacity="0.23"/>
  <circle cx="65" cy="105" r="2" opacity="0.27"/>
  <circle cx="85" cy="105" r="2" opacity="0.27"/>
  <circle cx="105" cy="105" r="2" opacity="0.23"/>
  <circle cx="125" cy="105" r="3.5" opacity="1"/>
  <circle cx="15" cy="115" r="2" opacity="0.11"/>
  <circle cx="35" cy="115" r="2" opacity="0.17"/>
  <circle cx="55" cy="115" r="2" opacity="0.22"/>
  <circle cx="75" cy="115" r="2" opacity="0.24"/>
  <circle cx="95" cy="115" r="2" opacity="0.22"/>
  <circle cx="115" cy="115" r="2" opacity="0.17"/>
  <circle cx="135" cy="115" r="3.5" opacity="1"/>
  <circle cx="25" cy="125" r="3.5" opacity="1"/>
  <circle cx="45" cy="125" r="3.5" opacity="1"/>
  <circle cx="65" cy="125" r="2" opacity="0.20"/>
  <circle cx="85" cy="125" r="2" opacity="0.20"/>
  <circle cx="105" cy="125" r="3.5" opacity="1"/>
  <circle cx="125" cy="125" r="3.5" opacity="1"/>
  <circle cx="35" cy="135" r="3.5" opacity="1"/>
  <circle cx="55" cy="135" r="2" opacity="0.15"/>
  <circle cx="75" cy="135" r="2" opacity="0.16"/>
  <circle cx="95" cy="135" r="2" opacity="0.15"/>
  <circle cx="115" cy="135" r="3.5" opacity="1"/>
  <circle cx="65" cy="145" r="3.5" opacity="1"/>
  <circle cx="85" cy="145" r="3.5" opacity="1"/>
</svg>